<?xml version="1.0" encoding="UTF-8" standalone="no"?>
<svg
   width="52.699001mm"
   height="50.396999mm"
   viewBox="0 0 52.699 50.396999"
   version="1.1"
   id="svg1"
   xml:space="preserve"
   xmlns="http://www.w3.org/2000/svg"
   xmlns:svg="http://www.w3.org/2000/svg"><defs
     id="defs1" /><g
     id="g153"
     transform="translate(-56.935219,-74.915243)"><path
       id="rect141"
       style="fill:#6e6ade;fill-opacity:1;stroke-width:0.731553"
       d="M 65.595156 74.918344 C 64.090601 74.981544 62.693353 76.048866 62.387599 77.698536 L 57.103684 106.20481 C 56.146499 111.36917 59.361686 117.03935 64.286708 118.8645 C 69.704987 120.87245 75.124268 122.87744 80.541013 124.88945 C 82.055993 125.4522 84.51235 125.45315 86.0275 124.89049 C 91.44538 122.8802 96.863503 120.87157 102.28181 118.86243 C 107.20651 117.03637 110.42321 111.36914 109.46586 106.20481 L 104.1804 77.698536 C 103.83091 75.813266 102.0555 74.6891 100.3243 74.954 C 99.531565 75.07538 98.423166 75.838301 97.748232 76.282601 L 84.505629 84.999899 A 2.2227394 2.2227394 0 0 1 82.062367 84.999899 L 68.820282 76.282601 C 68.14533 75.838301 67.036773 75.07533 66.244212 74.954 C 66.027801 74.9208 65.810093 74.909244 65.595156 74.918344 z M 65.676288 77.038628 C 65.782263 77.036949 65.888213 77.049609 65.99048 77.079969 C 70.916203 80.056177 75.633478 83.382004 80.496055 86.486113 C 81.844716 87.59558 83.812853 87.741435 85.349505 86.945516 C 90.167596 83.861078 94.90081 80.635702 99.724855 77.556425 C 100.29699 76.90015 101.49622 76.875443 101.95418 77.674764 C 103.77824 86.790514 105.39605 95.958292 107.10993 105.09996 C 108.4068 109.25146 106.53593 114.16983 102.73294 116.31375 C 97.758091 118.4029 92.620467 120.14083 87.556606 122.06482 C 85.796145 122.79673 84.049933 123.44289 82.127997 123.10972 C 76.71618 121.33498 71.424647 119.19617 66.062827 117.2708 C 63.386368 116.52659 61.114627 114.55479 59.966559 112.02926 C 59.318312 110.67862 58.944596 108.96681 59.088576 107.34014 C 60.731962 97.979137 62.525973 88.639959 64.242267 79.285002 C 64.333135 78.423968 64.510312 77.17741 65.570351 77.044829 C 65.605606 77.041131 65.640962 77.039187 65.676288 77.038628 z M 74.68349 91.093584 C 73.023422 91.033895 71.374436 91.761772 70.254819 92.979773 C 68.711077 94.520951 68.692473 96.832947 68.721063 98.867786 C 68.811023 100.60897 68.612999 102.3564 68.781524 104.09279 C 68.943899 106.64162 71.106262 108.82458 73.633425 109.08215 C 76.545707 109.47178 79.375387 107.15029 79.792739 104.28709 C 79.938819 101.90853 79.867253 99.514382 79.854233 97.129908 C 80.163471 94.148998 77.670464 91.251364 74.68349 91.093584 z M 92.652419 91.093584 C 90.992333 91.03174 89.3427 91.762627 88.221681 92.977706 C 86.650476 94.547139 86.657905 96.900606 86.687925 98.967005 C 86.776385 100.66776 86.585198 102.37406 86.742702 104.07057 C 86.906381 106.62838 89.070857 108.83176 91.611139 109.0899 C 94.479575 109.44305 97.283752 107.2146 97.738413 104.39045 C 97.929609 101.97927 97.822228 99.548748 97.819028 97.129908 C 98.129091 94.150254 95.639299 91.250802 92.652419 91.093584 z M 74.502622 93.201465 A 3.46205 3.46205 0 0 1 77.757721 96.859123 L 77.757721 103.3688 A 3.6577687 3.6577687 0 0 1 74.099546 107.02646 A 3.4620361 3.4620361 0 0 1 70.844964 103.3688 L 70.844964 96.859123 A 3.657754 3.657754 0 0 1 74.502622 93.201465 z M 92.470001 93.201465 A 3.46205 3.46205 0 0 1 95.723549 96.859123 L 95.723549 103.3688 A 3.6577687 3.6577687 0 0 1 92.065891 107.02646 A 3.4620361 3.4620361 0 0 1 88.812343 103.3688 L 88.812343 96.859123 A 3.657754 3.657754 0 0 1 92.470001 93.201465 z " /></g></svg>
