<?xml version="1.0" encoding="UTF-8" standalone="no"?>

<svg
   width="52.699001mm"
   height="50.396999mm"
   viewBox="0 0 52.699 50.396999"
   version="1.1"
   id="svg1"
   xml:space="preserve"
   xmlns="http://www.w3.org/2000/svg"
   xmlns:svg="http://www.w3.org/2000/svg"><defs
     id="defs1" /><g
     id="g153"
     transform="translate(-56.935219,-74.915243)"><path
       id="rect141"
       style="fill:#6e6ade;fill-opacity:1;stroke-width:0.731553"
       d="m 65.595392,74.918268 c -1.504555,0.0632 -2.901938,1.1308 -3.207692,2.78047 l -5.28376,28.506322 c -0.957185,5.16436 2.257635,10.83415 7.182657,12.6593 5.418279,2.00795 10.837455,4.01329 16.2542,6.0253 1.51498,0.56275 3.97151,0.56366 5.48666,10e-4 5.41788,-2.01029 10.835861,-4.01904 16.254163,-6.02818 4.9247,-1.82606 8.14144,-7.49353 7.18409,-12.65786 l -5.28519,-28.505882 c -0.34949,-1.88527 -2.12518,-3.00965 -3.85638,-2.74475 -0.792737,0.12138 -1.901191,0.8845 -2.576125,1.3288 l -13.242228,8.71721 a 2.2227394,2.2227394 0 0 1 -2.44329,0 L 68.82023,76.282788 c -0.674952,-0.4443 -1.783594,-1.20747 -2.576155,-1.3288 -0.216411,-0.0332 -0.433746,-0.0448 -0.648683,-0.0357 z m 8.907242,18.28311 a 3.46205,3.46205 0 0 1 3.254845,3.65778 v 6.509692 a 3.6577687,3.6577687 0 0 1 -3.657778,3.65778 3.4620361,3.4620361 0 0 1 -3.254845,-3.65778 v -6.509692 a 3.657754,3.657754 0 0 1 3.657778,-3.65778 z m 17.967351,0 a 3.46205,3.46205 0 0 1 3.253392,3.65778 v 6.509692 a 3.6577687,3.6577687 0 0 1 -3.657732,3.65778 3.4620361,3.4620361 0 0 1 -3.253428,-3.65778 v -6.509692 a 3.657754,3.657754 0 0 1 3.657768,-3.65778 z" /></g></svg>
