<?xml version="1.0" encoding="UTF-8" standalone="no"?>

<svg
   width="512"
   height="512"
   viewBox="0 0 135.46667 135.46667"
   version="1.1"
   id="svg1"
   xml:space="preserve"
   xmlns="http://www.w3.org/2000/svg"
   xmlns:svg="http://www.w3.org/2000/svg"><defs
     id="defs1" /><g
     id="layer1"><path
       id="rect1"
       style="fill:#6e6ade;stroke-width:0.264583"
       d="M 0 0 L 0 135.46667 L 135.46667 135.46667 L 135.46667 0 L 0 0 z M 38.765592 26.474353 C 39.117564 26.459463 39.473673 26.478377 39.82806 26.532747 C 41.125929 26.731432 42.941648 27.981274 44.046924 28.708842 L 65.731905 42.983423 A 3.6398752 3.6398752 0 0 0 69.732694 42.983423 L 91.417676 28.708842 C 92.522923 27.981274 94.338386 26.731514 95.63654 26.532747 C 98.471491 26.098956 101.37909 27.940315 101.9514 31.027563 L 110.60617 77.707918 C 112.17389 86.164833 106.90653 95.445569 98.842029 98.435852 C 89.969218 101.72595 81.09665 105.01564 72.224532 108.3076 C 69.743379 109.22864 65.720943 109.22707 63.240068 108.30553 C 54.369808 105.01075 45.495343 101.72657 36.622571 98.438436 C 28.557538 95.44964 23.293047 86.165399 24.860498 77.708435 L 33.5132 31.027563 C 34.013891 28.326126 36.301788 26.577848 38.765592 26.474353 z M 53.351782 56.414128 A 5.9898016 5.9898016 0 0 0 47.361967 62.403943 L 47.361967 73.063757 A 5.6693013 5.6693013 0 0 0 52.692391 79.053573 A 5.9898257 5.9898257 0 0 0 58.682206 73.063757 L 58.682206 62.403943 A 5.6693241 5.6693241 0 0 0 53.351782 56.414128 z M 82.774792 56.414128 A 5.9898016 5.9898016 0 0 0 76.784977 62.403943 L 76.784977 73.063757 A 5.6693013 5.6693013 0 0 0 82.112301 79.053573 A 5.9898257 5.9898257 0 0 0 88.102116 73.063757 L 88.102116 62.403943 A 5.6693241 5.6693241 0 0 0 82.774792 56.414128 z " /></g></svg>
